<?xml version="1.0" standalone="no"?>
<!DOCTYPE svg PUBLIC "-//W3C//DTD SVG 20010904//EN"
  "http://www.w3.org/TR/2001/REC-SVG-20010904/DTD/svg10.dtd">
<svg version="1.0" xmlns="http://www.w3.org/2000/svg"
     width="512.000000pt" height="512.000000pt" viewBox="0 0 512.000000 512.000000"
     preserveAspectRatio="xMidYMid meet">

  <g transform="translate(0.000000,512.000000) scale(0.100000,-0.100000)"
     fill="#000000" stroke="none">
    <path d="M2335 4455 c-229 -41 -432 -128 -614 -262 -168 -124 -375 -355 -375
-419 0 -59 59 -98 108 -72 13 7 43 38 67 68 272 351 635 540 1039 540 695 0
1267 -573 1350 -1353 7 -60 10 -110 8 -112 -2 -2 -46 7 -100 20 -223 54 -614
109 -866 121 l-133 7 64 66 c77 79 118 138 164 237 124 270 91 527 -92 709
-223 223 -567 222 -791 -1 -147 -146 -197 -341 -144 -562 36 -151 106 -279
212 -388 l59 -61 -128 -7 c-284 -15 -775 -88 -946 -142 -18 -6 -18 -1 -12 73
4 43 13 114 21 158 19 113 18 148 -6 170 -28 25 -85 25 -110 0 -30 -30 -70
-260 -70 -402 l0 -48 -127 -45 c-429 -152 -700 -376 -744 -614 -42 -230 138
-461 497 -640 695 -345 1990 -451 3019 -245 174 35 198 48 193 113 -2 29 -10
44 -30 59 l-28 21 -162 -32 c-333 -66 -587 -91 -978 -99 -529 -10 -968 33
-1388 137 -482 119 -834 307 -931 498 l-21 42 184 0 184 0 6 -23 c9 -38 82
-113 134 -138 65 -32 159 -32 224 0 52 25 125 100 134 138 6 23 7 23 171 23
161 0 164 0 188 25 31 30 32 73 4 109 l-20 26 -169 0 -168 0 -6 26 c-4 14 -31
50 -60 79 -112 112 -260 112 -372 0 -29 -29 -56 -65 -60 -79 l-6 -26 -184 0
c-101 0 -184 4 -184 9 0 5 19 37 42 71 84 126 262 244 522 345 729 285 1927
343 2846 139 485 -108 874 -300 992 -490 49 -79 59 -74 -142 -74 l-180 0 -19
39 c-26 50 -72 96 -125 124 -58 31 -174 31 -232 0 -53 -28 -99 -74 -125 -124
l-19 -39 -190 0 c-177 0 -191 -1 -210 -20 -29 -29 -27 -90 3 -118 22 -21 32
-22 214 -22 l191 0 6 -23 c3 -13 24 -44 46 -69 110 -125 290 -125 400 0 22 25
43 56 46 69 l6 23 184 0 184 0 -21 -42 c-46 -90 -196 -217 -346 -292 -83 -41
-107 -100 -60 -144 40 -37 66 -36 142 4 266 139 421 309 456 496 16 85 -6 188
-59 277 -43 73 -169 198 -262 259 -97 64 -279 151 -421 202 l-126 45 -7 107
c-47 782 -586 1432 -1285 1552 -113 19 -354 20 -456 1z m389 -483 c181 -85
269 -274 222 -477 -26 -108 -90 -228 -165 -308 -104 -110 -191 -143 -297 -112
-50 14 -69 28 -134 93 -87 88 -137 179 -170 307 -44 171 -12 304 100 415 87
88 177 122 302 116 60 -3 93 -11 142 -34z m-1691 -1833 c61 -66 17 -169 -73
-169 -88 0 -133 100 -75 169 42 49 102 49 148 0z m3198 2 c23 -23 29 -38 29
-71 0 -91 -106 -135 -171 -71 -64 65 -20 171 71 171 33 0 48 -6 71 -29z"/>
    <path d="M2294 3679 c-42 -46 -3 -161 65 -189 101 -41 135 88 46 177 -39 39
-82 44 -111 12z"/>
    <path d="M2721 3675 c-40 -35 -67 -105 -55 -148 19 -66 103 -58 151 15 68 102
-7 207 -96 133z"/>
    <path d="M1236 3597 c-26 -26 -86 -165 -86 -200 0 -28 34 -63 71 -72 39 -10
72 26 114 122 42 96 43 116 10 148 -31 32 -78 33 -109 2z"/>
    <path d="M1632 2660 c-19 -12 -40 -37 -49 -58 -54 -129 147 -227 212 -102 58
111 -57 224 -163 160z"/>
    <path d="M3384 2665 c-85 -44 -84 -169 2 -210 52 -25 90 -19 132 19 33 31 37
39 37 85 0 43 -5 55 -31 82 -38 37 -94 47 -140 24z"/>
    <path d="M2440 2578 c-39 -15 -74 -40 -121 -87 -74 -75 -117 -154 -144 -268
l-18 -73 -173 0 -173 0 -20 -26 c-28 -36 -27 -79 4 -109 24 -25 27 -25 193
-25 l170 0 16 -71 c34 -153 132 -291 244 -346 49 -24 69 -28 142 -28 73 0 93
4 142 28 112 55 210 193 244 346 l16 71 170 0 c166 0 169 0 193 25 31 30 32
73 4 109 l-20 26 -174 0 -173 0 -17 75 c-24 108 -68 189 -144 266 -49 49 -81
71 -124 87 -75 28 -163 28 -237 0z m183 -152 c78 -34 146 -144 169 -274 33
-193 -61 -407 -194 -443 -150 -40 -291 164 -275 396 9 125 46 213 118 282 56
53 118 66 182 39z"/>
    <path d="M4070 1519 c-107 -33 -139 -92 -81 -150 16 -16 38 -29 48 -29 33 0
147 42 168 61 30 29 26 86 -9 115 -32 28 -40 28 -126 3z"/>
  </g>
</svg>
