<?xml version="1.0" standalone="no"?>
<!DOCTYPE svg PUBLIC "-//W3C//DTD SVG 20010904//EN"
 "http://www.w3.org/TR/2001/REC-SVG-20010904/DTD/svg10.dtd">
<svg version="1.0" xmlns="http://www.w3.org/2000/svg"
 width="512.000000pt" height="512.000000pt" viewBox="0 0 512.000000 512.000000"
 preserveAspectRatio="xMidYMid meet">
<metadata>
Created by potrace 1.14, written by Peter Selinger 2001-2017
</metadata>
<g transform="translate(0.000000,512.000000) scale(0.100000,-0.100000)"
fill="#000000" stroke="none">
<path d="M2537 4474 c-1 -1 -42 -4 -92 -7 -292 -17 -617 -162 -849 -377 -103
-95 -210 -220 -241 -280 -16 -31 -8 -78 16 -93 17 -11 16 -14 -8 -58 -26 -45
-28 -46 -65 -42 -32 5 -41 1 -65 -24 -29 -31 -83 -162 -83 -199 0 -24 35 -64
55 -64 16 0 18 -12 9 -47 -5 -19 -12 -22 -39 -19 -53 7 -81 -25 -99 -114 -23
-113 -34 -209 -35 -300 l-1 -56 -97 -33 c-54 -18 -114 -40 -133 -48 -346 -150
-550 -315 -621 -502 -100 -268 105 -553 536 -743 180 -80 405 -153 595 -193 8
-2 35 -8 60 -14 52 -12 83 -17 165 -31 33 -5 72 -12 87 -15 39 -7 83 -13 158
-21 36 -3 68 -8 71 -10 3 -2 46 -6 95 -9 49 -4 95 -8 103 -11 66 -22 871 -22
1001 0 14 2 63 7 110 11 96 8 143 13 180 20 14 2 48 7 75 10 28 3 61 8 75 10
14 3 41 7 60 10 19 3 42 8 50 10 8 2 30 7 48 10 86 15 174 36 191 47 11 6 23
25 28 42 7 24 17 33 48 42 36 10 43 9 68 -12 32 -27 52 -26 140 2 62 19 102
59 91 87 -4 11 6 22 33 35 65 33 81 35 108 13 35 -27 65 -21 165 34 155 86
274 187 346 295 191 287 34 590 -425 820 -70 35 -260 111 -328 131 l-43 12 -1
51 c0 28 -2 67 -4 86 -2 19 -7 62 -10 95 -24 236 -129 525 -269 743 -246 381
-637 639 -1046 691 -81 11 -208 20 -213 15z"/>
</g>
</svg>
